<svg width="20" height="20" viewBox="0 0 20 20" fill="none" xmlns="http://www.w3.org/2000/svg">
<path d="M15.8333 10.8377V8.88384C15.8333 8.2023 15.8333 7.86153 15.7065 7.55511C15.5796 7.2487 15.3387 7.00773 14.857 6.5258L10.9099 2.57697C10.4942 2.16105 10.2863 1.95309 10.0287 1.82986C9.97517 1.80424 9.92033 1.78149 9.86433 1.76172C9.59508 1.66667 9.30117 1.66667 8.71317 1.66667C6.00902 1.66667 4.65692 1.66667 3.74111 2.40539C3.55609 2.55462 3.38757 2.72323 3.23839 2.90832C2.5 3.82453 2.5 5.17721 2.5 7.88257V11.671C2.5 14.8151 2.5 16.3871 3.47631 17.3638C4.26222 18.1501 5.43369 18.3034 7.5 18.3333M10 2.08352V2.50036C10 4.85841 10 6.03744 10.7322 6.76999C11.4645 7.50254 12.643 7.50254 15 7.50254H15.4167" stroke="#3B82F6" stroke-width="1.5" stroke-linecap="round" stroke-linejoin="round"/>
<path d="M13.3337 18.3333C15.6348 18.3333 17.5003 15.8333 17.5003 15.8333C17.5003 15.8333 15.6348 13.3333 13.3337 13.3333C11.0325 13.3333 9.16699 15.8333 9.16699 15.8333C9.16699 15.8333 11.0325 18.3333 13.3337 18.3333Z" stroke="#3B82F6" stroke-width="1.5" stroke-linejoin="round"/>
<path d="M13.3252 15.8333H13.3342" stroke="#3B82F6" stroke-width="2" stroke-linecap="round" stroke-linejoin="round"/>
</svg>
