<svg width="34" height="29" viewBox="0 0 34 29" fill="none" xmlns="http://www.w3.org/2000/svg">
<path d="M22.1666 25.5V23.1667C22.1666 21.929 21.6749 20.742 20.7997 19.8668C19.9246 18.9917 18.7376 18.5 17.4999 18.5H10.4999C9.26224 18.5 8.07526 18.9917 7.20009 19.8668C6.32492 20.742 5.83325 21.929 5.83325 23.1667V25.5" stroke="#7310B9" stroke-opacity="0.6" stroke-width="2" stroke-linecap="round" stroke-linejoin="round"/>
<path d="M13.9999 13.8333C16.5772 13.8333 18.6666 11.744 18.6666 9.16667C18.6666 6.58934 16.5772 4.5 13.9999 4.5C11.4226 4.5 9.33325 6.58934 9.33325 9.16667C9.33325 11.744 11.4226 13.8333 13.9999 13.8333Z" stroke="#7310B9" stroke-opacity="0.6" stroke-width="2" stroke-linecap="round" stroke-linejoin="round"/>
<path d="M28.1667 24.5V22.1667C28.1667 20.929 27.675 19.742 26.7998 18.8668C25.9247 17.9917 24.7377 17.5 23.5 17.5" stroke="#7310B9" stroke-opacity="0.6" stroke-width="2" stroke-linecap="round" stroke-linejoin="round"/>
<path d="M20.9057 12.6206C22.8883 12.1992 24.1078 10.0336 23.6296 7.78361C23.1513 5.53361 21.1564 4.05124 19.1738 4.47266" stroke="#7310B9" stroke-opacity="0.6" stroke-width="2" stroke-linecap="round" stroke-linejoin="round"/>
</svg>
